{
	"asset":{
		"version":"2.0",
		"generator":"Created using the official Cinema 4D glTF Exporter 1.000x290161"
	},
	"scenes":[{
		"nodes":[0]
	}],
	"nodes":[{
		"name":"Clamshell",
		"translation":[-2.489398717880249,
		0.6755747199058533,
		2.599130392074585],
		"rotation":[0.0,
		-0.9545375108718872,
		0.0,
		-0.29809078574180605],
		"scale":[4.408631324768066,
		4.408631324768066,
		4.408631324768066],
		"children":[1,
		2,
		3]
	},
	{
		"name":"Bottom Shell",
		"translation":[-0.0007283035083673894,
		-0.010881992056965828,
		0.026484167203307153],
		"rotation":[0.0,
		0.0,
		0.0,
		-1.0],
		"scale":[1.0,
		1.0,
		1.0],
		"mesh":0
	},
	{
		"name":"Top Shell",
		"translation":[-0.0016788637731224299,
		0.02032364159822464,
		-0.04710450395941734],
		"rotation":[0.7071067690849304,
		0.0,
		0.0,
		-0.7071067690849304],
		"scale":[1.0,
		1.0,
		1.0],
		"mesh":1
	},
	{
		"name":"Pearl",
		"translation":[0.00240716733969748,
		-0.007272738963365555,
		0.02062033861875534],
		"rotation":[0.0,
		0.0,
		0.0,
		-1.0],
		"scale":[1.0,
		1.0,
		1.0],
		"mesh":2
	}],
	"meshes":[{
		"primitives":[{
			"attributes":{
				"POSITION":1,
				"NORMAL":2,
				"TEXCOORD_0":3
			},
			"indices":0,
			"material":0
		}]
	},
	{
		"primitives":[{
			"attributes":{
				"POSITION":5,
				"NORMAL":6,
				"TEXCOORD_0":7
			},
			"indices":4,
			"material":0
		}]
	},
	{
		"primitives":[{
			"attributes":{
				"POSITION":9,
				"NORMAL":10,
				"TEXCOORD_0":11
			},
			"indices":8,
			"material":1
		}]
	}],
	"accessors":[{
		"bufferView":0,
		"type":"SCALAR",
		"componentType":5123,
		"count":61440,
		"byteOffset":0,
		"min":[0],
		"max":[10799]
	},
	{
		"bufferView":1,
		"type":"VEC3",
		"componentType":5126,
		"count":10800,
		"byteOffset":0,
		"min":[-0.10873980075120926,
		-0.05802258104085922,
		-0.10095493495464325],
		"max":[0.10872507840394974,
		0.004538599867373705,
		0.1291036158800125]
	},
	{
		"bufferView":1,
		"type":"VEC3",
		"componentType":5126,
		"count":10800,
		"byteOffset":12,
		"min":[-0.9925653338432312,
		-0.999812662601471,
		-0.9993708729743958],
		"max":[0.9925658702850342,
		0.9999743103981018,
		0.9993249773979187]
	},
	{
		"bufferView":1,
		"type":"VEC2",
		"componentType":5126,
		"count":10800,
		"byteOffset":24,
		"min":[0.0,
		0.0],
		"max":[1.0,
		1.0]
	},
	{
		"bufferView":2,
		"type":"SCALAR",
		"componentType":5123,
		"count":61440,
		"byteOffset":0,
		"min":[0],
		"max":[10791]
	},
	{
		"bufferView":3,
		"type":"VEC3",
		"componentType":5126,
		"count":10792,
		"byteOffset":0,
		"min":[-0.10448766499757767,
		-0.024146195501089097,
		-0.024155624210834504],
		"max":[0.1046753004193306,
		0.04821884632110596,
		0.2023334801197052]
	},
	{
		"bufferView":3,
		"type":"VEC3",
		"componentType":5126,
		"count":10792,
		"byteOffset":12,
		"min":[-0.9909712672233582,
		-0.999997615814209,
		-0.9988465309143066],
		"max":[0.9910531044006348,
		0.9999221563339233,
		0.9994530081748962]
	},
	{
		"bufferView":3,
		"type":"VEC2",
		"componentType":5126,
		"count":10792,
		"byteOffset":24,
		"min":[0.0,
		0.0],
		"max":[1.0,
		1.0]
	},
	{
		"bufferView":4,
		"type":"SCALAR",
		"componentType":5123,
		"count":11904,
		"byteOffset":0,
		"min":[0],
		"max":[2142]
	},
	{
		"bufferView":5,
		"type":"VEC3",
		"componentType":5126,
		"count":2143,
		"byteOffset":0,
		"min":[-0.027739478275179864,
		-0.027739478275179864,
		-0.027739478275179864],
		"max":[0.027739478275179864,
		0.027739478275179864,
		0.027739478275179864]
	},
	{
		"bufferView":5,
		"type":"VEC3",
		"componentType":5126,
		"count":2143,
		"byteOffset":12,
		"min":[-0.9999999403953552,
		-0.9999999403953552,
		-0.9999999403953552],
		"max":[0.9999999403953552,
		0.9999999403953552,
		0.9999999403953552]
	},
	{
		"bufferView":5,
		"type":"VEC2",
		"componentType":5126,
		"count":2143,
		"byteOffset":24,
		"min":[0.0,
		0.0],
		"max":[1.0,
		1.0]
	}],
	"bufferViews":[{
		"buffer":0,
		"byteOffset":0,
		"byteLength":122880,
		"target":34963
	},
	{
		"buffer":0,
		"byteOffset":122880,
		"byteLength":345600,
		"target":34962,
		"byteStride":32
	},
	{
		"buffer":1,
		"byteOffset":0,
		"byteLength":122880,
		"target":34963
	},
	{
		"buffer":1,
		"byteOffset":122880,
		"byteLength":345344,
		"target":34962,
		"byteStride":32
	},
	{
		"buffer":2,
		"byteOffset":0,
		"byteLength":23808,
		"target":34963
	},
	{
		"buffer":2,
		"byteOffset":23808,
		"byteLength":68576,
		"target":34962,
		"byteStride":32
	}],
	"buffers":[{
		"uri":"data:application/octet-stream;base64,",
		"byteLength":468480
	},
	{
		"uri":"data:application/octet-stream;base64,",
		"byteLength":468224
	},
	{
		"uri":"data:application/octet-stream;base64,",
		"byteLength":92384
	}],
	"images":[{
		"uri":"data:image/jpeg;base64,"
	}],
	"samplers":[{
		"magFilter":9729,
		"minFilter":9729,
		"wrapS":10497,
		"wrapT":10497
	}],
	"textures":[{
		"sampler":0,
		"source":0
	}],
	"materials":[{
		"pbrMetallicRoughness":{
			"baseColorFactor":[0.40583529411764709,
			0.6149019607843138,
			0.4859775163398694,
			1.0],
			"metallicFactor":1.0,
			"roughnessFactor":1.0
		},
		"emissiveFactor":[0.7694117647058824,
		0.32117647058823536,
		0.511764705882353],
		"alphaMode":"OPAQUE",
		"doubleSided":true,
		"name":"Pink"
	},
	{
		"pbrMetallicRoughness":{
			"baseColorFactor":[1.0,
			0.18999999999999996,
			0.18999999999999996,
			1.0],
			"metallicFactor":1.0,
			"roughnessFactor":0.84
		},
		"normalTexture":{
			"index":0,
			"scale":1.0
		},
		"emissiveFactor":[1.0,
		0.14901960784313729,
		0.1882352941176475],
		"alphaMode":"OPAQUE",
		"doubleSided":true,
		"name":"Pearl"
	}]
}