{
	"asset":{
		"version":"2.0",
		"generator":"Created using the official Cinema 4D glTF Exporter 1.000x290161"
	},
	"scenes":[{
		"nodes":[0]
	}],
	"nodes":[{
		"name":"Kalabaw",
		"translation":[1.6396409273147584,
		0.8672847747802734,
		-3.1500279903411867],
		"rotation":[0.0,
		-0.4356333017349243,
		0.0,
		0.9001242518424988],
		"scale":[0.1208106204867363,
		0.1208106204867363,
		0.1208106204867363],
		"children":[1,
		3]
	},
	{
		"name":"Kalabaw",
		"translation":[0.02029135264456272,
		-0.02371208742260933,
		0.6037888526916504],
		"rotation":[0.0,
		-4.1169500388258336e-17,
		0.0,
		-1.0],
		"scale":[21.573699951171876,
		21.573699951171876,
		21.573699951171876],
		"children":[2]
	},
	{
		"name":"Kalabaw",
		"mesh":0,
		"skin":0
	},
	{
		"name":"Root",
		"translation":[-0.02029135264456272,
		1.1368683518051719e-15,
		-0.6037888526916504],
		"rotation":[0.0,
		0.0,
		0.0,
		-1.0],
		"scale":[1.0,
		1.0,
		1.0],
		"children":[4]
	},
	{
		"name":"Joint",
		"translation":[0.004486690741032362,
		0.05800782889127731,
		-0.02960100769996643],
		"rotation":[-1.4312548974688654e-17,
		-0.9722987413406372,
		0.2337416559457779,
		-5.953612606515716e-17],
		"scale":[1.0,
		1.0,
		1.0],
		"children":[5]
	},
	{
		"name":"Joint.1",
		"translation":[0.01015021838247776,
		-0.015879569575190545,
		-1.2420494556427003],
		"rotation":[0.08264748752117157,
		-1.2204570835209133e-16,
		-1.0121398518811098e-17,
		-0.9965788722038269],
		"scale":[1.0,
		1.0,
		1.0],
		"children":[6]
	},
	{
		"name":"Joint.2",
		"translation":[-0.022286349907517434,
		-3.202512699473914e-10,
		-0.39066389203071597],
		"rotation":[-0.1817834973335266,
		0.01340053603053093,
		-0.023518646135926248,
		-0.9829659461975098],
		"scale":[1.0,
		1.0,
		1.0],
		"children":[7]
	},
	{
		"name":"Joint.3",
		"translation":[-0.11382219940423966,
		1.1368683518051719e-15,
		-0.20192840695381165],
		"rotation":[0.20237229764461518,
		-0.006212595850229263,
		0.004820961505174637,
		-0.9792770743370056],
		"scale":[1.0,
		1.0,
		1.0],
		"children":[8]
	},
	{
		"name":"Joint.4",
		"translation":[-0.11424058675765991,
		3.97903933719722e-15,
		-0.4657650887966156],
		"rotation":[-1.8388068845354156e-16,
		-6.875725574832792e-13,
		-1.2643131842913228e-28,
		1.0],
		"scale":[1.0,
		1.0,
		1.0]
	}],
	"meshes":[{
		"primitives":[{
			"attributes":{
				"POSITION":1,
				"NORMAL":2,
				"TEXCOORD_0":3,
				"JOINTS_0":4,
				"WEIGHTS_0":5
			},
			"indices":0,
			"material":0
		}]
	}],
	"skins":[{
		"inverseBindMatrices":10,
		"joints":[4,
		5,
		6,
		7,
		8]
	}],
	"accessors":[{
		"bufferView":0,
		"type":"SCALAR",
		"componentType":5123,
		"count":60960,
		"byteOffset":0,
		"min":[0],
		"max":[11713]
	},
	{
		"bufferView":1,
		"type":"VEC3",
		"componentType":5126,
		"count":11714,
		"byteOffset":0,
		"min":[-0.02022824063897133,
		-0.0013386913342401386,
		-0.06720574200153351],
		"max":[0.022367149591445924,
		0.05210189148783684,
		0.04228152707219124]
	},
	{
		"bufferView":1,
		"type":"VEC3",
		"componentType":5126,
		"count":11714,
		"byteOffset":12,
		"min":[-0.9995476603507996,
		-0.9998098015785217,
		-0.9993795156478882],
		"max":[0.9999366998672485,
		0.9999493360519409,
		0.9997895359992981]
	},
	{
		"bufferView":1,
		"type":"VEC2",
		"componentType":5126,
		"count":11714,
		"byteOffset":24,
		"min":[0.07973746955394745,
		0.01515824906527996],
		"max":[0.9701150059700012,
		0.9185888767242432]
	},
	{
		"bufferView":2,
		"type":"VEC4",
		"componentType":5123,
		"count":11714,
		"byteOffset":0,
		"min":[0,
		0,
		0,
		0],
		"max":[3,
		3,
		2,
		3]
	},
	{
		"bufferView":3,
		"type":"VEC4",
		"componentType":5126,
		"count":11714,
		"byteOffset":0,
		"min":[0.5003738403320313,
		0.0,
		0.0,
		0.0],
		"max":[1.0,
		0.49961090087890627,
		0.0,
		0.0]
	},
	{
		"bufferView":4,
		"type":"SCALAR",
		"componentType":5126,
		"count":133,
		"byteOffset":0,
		"min":[0.0],
		"max":[4.400000095367432]
	},
	{
		"bufferView":4,
		"type":"VEC4",
		"componentType":5126,
		"count":133,
		"byteOffset":532,
		"min":[0.14496828615665437,
		-0.006664257496595383,
		0.00310245412401855,
		-0.9893994927406311],
		"max":[0.3798963129520416,
		-0.004639251157641411,
		0.005328306928277016,
		-0.9250122308731079]
	},
	{
		"bufferView":5,
		"type":"SCALAR",
		"componentType":5126,
		"count":133,
		"byteOffset":0,
		"min":[0.0],
		"max":[4.400000095367432]
	},
	{
		"bufferView":5,
		"type":"VEC3",
		"componentType":5126,
		"count":133,
		"byteOffset":532,
		"min":[1.0,
		1.0,
		1.0],
		"max":[1.0,
		1.0,
		1.0]
	},
	{
		"bufferView":6,
		"type":"MAT4",
		"componentType":5126,
		"count":5,
		"byteOffset":0,
		"min":[-21.573699951171876,
		-7.339650072846063e-16,
		-7.887996015371567e-15,
		0.0,
		-2.1393273979576634e-15,
		16.865812301635743,
		-13.437997817993164,
		0.0,
		-0.9868990778923035,
		-13.407206535339356,
		-20.816797256469728,
		0.0,
		-0.0462462343275547,
		-0.7371450066566467,
		-1.0648473501205445,
		1.0],
		"max":[-21.542085647583009,
		1.102589726448059,
		0.4852093756198883,
		0.0,
		0.6237779855728149,
		20.814937591552736,
		-5.643584728240967,
		0.0,
		7.75276635830947e-15,
		-5.62651252746582,
		-16.87297821044922,
		0.0,
		0.19014590978622437,
		-0.430423378944397,
		1.0895798206329346,
		1.0]
	}],
	"bufferViews":[{
		"buffer":0,
		"byteOffset":0,
		"byteLength":121920,
		"target":34963
	},
	{
		"buffer":0,
		"byteOffset":121920,
		"byteLength":374848,
		"target":34962,
		"byteStride":32
	},
	{
		"buffer":0,
		"byteOffset":496768,
		"byteLength":93712,
		"target":34962
	},
	{
		"buffer":0,
		"byteOffset":590480,
		"byteLength":187424,
		"target":34962
	},
	{
		"buffer":1,
		"byteOffset":0,
		"byteLength":2660
	},
	{
		"buffer":1,
		"byteOffset":2660,
		"byteLength":2128
	},
	{
		"buffer":2,
		"byteOffset":0,
		"byteLength":320
	}],
	"buffers":[{
		"uri":"data:application/octet-stream;base64,",
		"byteLength":777904
	},
	{
		"uri":"data:application/octet-stream;base64,",
		"byteLength":4788
	},
	{
		"uri":"data:application/octet-stream;base64,",
		"byteLength":320
	}],
	"materials":[{
		"pbrMetallicRoughness":{
			"baseColorFactor":[1.0,
			1.0,
			1.0,
			1.0],
			"metallicFactor":1.0,
			"roughnessFactor":1.0
		},
		"emissiveFactor":[0.0,
		0.0,
		0.0],
		"alphaMode":"OPAQUE",
		"doubleSided":true,
		"name":""
	}],
	"animations":[{
		"samplers":[{
			"input":6,
			"interpolation":"LINEAR",
			"output":7
		},
		{
			"input":8,
			"interpolation":"LINEAR",
			"output":9
		}],
		"channels":[{
			"sampler":0,
			"target":{
				"node":7,
				"path":"rotation"
			}
		},
		{
			"sampler":1,
			"target":{
				"node":7,
				"path":"scale"
			}
		}]
	}]
}