{
	"asset":{
		"version":"2.0",
		"generator":"Created using the official Cinema 4D glTF Exporter 1.000x290161"
	},
	"scenes":[{
		"nodes":[0]
	}],
	"nodes":[{
		"name":"Kalabaw",
		"translation":[1.9326400756835938,
		0.8672847747802734,
		-3.1500279903411867],
		"rotation":[0.0,
		-0.4356333017349243,
		0.0,
		0.9001242518424988],
		"children":[1,
		3],
		"scale":[0.44415315985679629,
		0.44415315985679629,
		0.44415315985679629]
	},
	{
		"name":"Kalabaw",
		"translation":[0.02029135264456272,
		-0.02371208742260933,
		0.6037888526916504],
		"rotation":[0.0,
		-4.1169500388258336e-17,
		0.0,
		-1.0],
		"children":[2],
		"scale":[21.573699951171876,
		21.573699951171876,
		21.573699951171876]
	},
	{
		"name":"Kalabaw",
		"mesh":0,
		"skin":0
	},
	{
		"name":"Root",
		"translation":[-0.02029135264456272,
		1.1368683518051719e-15,
		-0.6037888526916504],
		"rotation":[0.0,
		0.0,
		0.0,
		-1.0],
		"children":[4],
		"scale":[1.0,
		1.0,
		1.0]
	},
	{
		"name":"Joint",
		"translation":[0.004486690741032362,
		0.05800782889127731,
		-0.02960100769996643],
		"rotation":[-1.4312548974688654e-17,
		-0.9722987413406372,
		0.2337416559457779,
		-5.953612606515716e-17],
		"children":[5],
		"scale":[1.0,
		1.0,
		1.0]
	},
	{
		"name":"Joint.1",
		"translation":[0.01015021838247776,
		-0.015879569575190545,
		-1.2420494556427003],
		"rotation":[0.08264748752117157,
		-1.2204570835209133e-16,
		-1.0121398518811098e-17,
		-0.9965788722038269],
		"children":[6],
		"scale":[1.0,
		1.0,
		1.0]
	},
	{
		"name":"Joint.2",
		"translation":[-0.022286349907517434,
		-3.202512699473914e-10,
		-0.39066389203071597],
		"rotation":[-0.1817834973335266,
		0.01340053603053093,
		-0.023518646135926248,
		-0.9829659461975098],
		"children":[7],
		"scale":[1.0,
		1.0,
		1.0]
	},
	{
		"name":"Joint.3",
		"translation":[-0.11382219940423966,
		1.1368683518051719e-15,
		-0.20192840695381165],
		"rotation":[0.3043731451034546,
		-0.005342674441635609,
		0.0038624133449047806,
		-0.9525300860404968],
		"children":[8],
		"scale":[1.0,
		1.0,
		1.0]
	},
	{
		"name":"Joint.4",
		"translation":[-0.11424058675765991,
		3.97903933719722e-15,
		-0.4657650887966156],
		"rotation":[-1.8388068845354156e-16,
		-6.875725574832792e-13,
		-1.2643131842913228e-28,
		1.0],
		"scale":[1.0,
		1.0,
		1.0]
	}],
	"meshes":[{
		"primitives":[{
			"attributes":{
				"POSITION":1,
				"NORMAL":2,
				"TEXCOORD_0":3,
				"JOINTS_0":4,
				"WEIGHTS_0":5
			},
			"indices":0,
			"material":0
		}]
	}],
	"skins":[{
		"inverseBindMatrices":6,
		"joints":[4,
		5,
		6,
		7,
		8]
	}],
	"accessors":[{
		"bufferView":0,
		"type":"SCALAR",
		"componentType":5123,
		"count":60960,
		"byteOffset":0,
		"min":[0],
		"max":[11702]
	},
	{
		"bufferView":1,
		"type":"VEC3",
		"componentType":5126,
		"count":11703,
		"byteOffset":0,
		"min":[-0.02022824063897133,
		-0.0013386913342401386,
		-0.06720574200153351],
		"max":[0.022367149591445924,
		0.05210189148783684,
		0.04336889088153839]
	},
	{
		"bufferView":1,
		"type":"VEC3",
		"componentType":5126,
		"count":11703,
		"byteOffset":12,
		"min":[-0.9995476603507996,
		-0.9998098015785217,
		-0.9993795156478882],
		"max":[0.9999366998672485,
		0.999792218208313,
		0.9997895359992981]
	},
	{
		"bufferView":1,
		"type":"VEC2",
		"componentType":5126,
		"count":11703,
		"byteOffset":24,
		"min":[0.07973746955394745,
		0.01515824906527996],
		"max":[0.9701150059700012,
		0.9185888767242432]
	},
	{
		"bufferView":2,
		"type":"VEC4",
		"componentType":5123,
		"count":11703,
		"byteOffset":0,
		"min":[0,
		0,
		0,
		0],
		"max":[3,
		3,
		2,
		3]
	},
	{
		"bufferView":3,
		"type":"VEC4",
		"componentType":5126,
		"count":11703,
		"byteOffset":0,
		"min":[0.5003738403320313,
		0.0,
		0.0,
		0.0],
		"max":[1.0,
		0.49961090087890627,
		0.0,
		0.0]
	},
	{
		"bufferView":4,
		"type":"MAT4",
		"componentType":5126,
		"count":5,
		"byteOffset":0,
		"min":[-21.573699951171876,
		-4.834531788660755e-31,
		4.706644450536927e-15,
		0.0,
		-1.4053623377334977e-15,
		16.865812301635743,
		-13.437997817993164,
		0.0,
		-0.9868990778923035,
		-13.407206535339356,
		-21.53165626525879,
		0.0,
		-0.0462462343275547,
		-0.8514224290847778,
		-1.0648473501205445,
		1.0],
		"max":[-21.542085647583009,
		1.102589726448059,
		0.6821132898330689,
		0.0,
		0.6237779855728149,
		21.535438537597658,
		-1.1606110334396363,
		0.0,
		-2.754028313384292e-15,
		-1.1422123908996583,
		-16.87297821044922,
		0.0,
		0.19163426756858827,
		-0.430423378944397,
		0.9211542010307312,
		1.0]
	}],
	"bufferViews":[{
		"buffer":0,
		"byteOffset":0,
		"byteLength":121920,
		"target":34963
	},
	{
		"buffer":0,
		"byteOffset":121920,
		"byteLength":374496,
		"target":34962,
		"byteStride":32
	},
	{
		"buffer":0,
		"byteOffset":496416,
		"byteLength":93624,
		"target":34962
	},
	{
		"buffer":0,
		"byteOffset":590040,
		"byteLength":187248,
		"target":34962
	},
	{
		"buffer":1,
		"byteOffset":0,
		"byteLength":320
	}],
	"buffers":[{
		"uri":"data:application/octet-stream;base64,",
		"byteLength":777288
	},
	{
		"uri":"data:application/octet-stream;base64,",
		"byteLength":320
	}],
	"materials":[{
		"pbrMetallicRoughness":{
			"baseColorFactor":[0.7686274509803921,
			0.592156862745098,
			0.9686274509803922,
			1.0],
			"metallicFactor":1.0,
			"roughnessFactor":1.0
		},
		"emissiveFactor":[0.0,
		0.0,
		0.0],
		"alphaMode":"OPAQUE",
		"doubleSided":true,
		"name":"Pink Grass"
	}]
}