{
	"asset":{
		"version":"2.0",
		"generator":"Created using the official Cinema 4D glTF Exporter 1.000x290161"
	},
	"scenes":[{
		"nodes":[0]
	}],
	"nodes":[{
		"name":"Palm-Tree",
		"translation":[-0.5531477332115173,
		0.0,
		-4.817646026611328],
		"rotation":[0.0,
		0.0,
		0.0,
		-1.0],
		"children":[1,
		2,
		3],
		"scale":[1.3622499704360963,
		1.3622499704360963,
		1.3622499704360963]
	},
	{
		"name":"Curly Palm tree.1",
		"translation":[7.105427198782324e-17,
		0.0,
		-5.684341759025859e-16],
		"rotation":[0.0,
		0.0,
		0.0,
		-1.0],
		"scale":[1.0,
		1.0,
		1.0],
		"mesh":0
	},
	{
		"name":"Branches",
		"translation":[7.105427198782324e-17,
		0.0,
		-5.684341759025859e-16],
		"rotation":[0.0,
		0.0,
		0.0,
		-1.0],
		"scale":[1.0,
		1.0,
		1.0],
		"mesh":1
	},
	{
		"name":"Leaves",
		"translation":[7.105427198782324e-17,
		0.0,
		-5.684341759025859e-16],
		"rotation":[0.0,
		0.0,
		0.0,
		-1.0],
		"scale":[1.0,
		1.0,
		1.0],
		"mesh":2
	}],
	"meshes":[{
		"primitives":[{
			"attributes":{
				"POSITION":1,
				"TEXCOORD_0":2
			},
			"indices":0,
			"material":0
		}]
	},
	{
		"primitives":[{
			"attributes":{
				"POSITION":4,
				"TEXCOORD_0":5
			},
			"indices":3,
			"material":0
		}]
	},
	{
		"primitives":[{
			"attributes":{
				"POSITION":7,
				"TEXCOORD_0":8
			},
			"indices":6,
			"material":1
		}]
	}],
	"accessors":[{
		"bufferView":0,
		"type":"SCALAR",
		"componentType":5123,
		"count":11520,
		"byteOffset":0,
		"min":[0],
		"max":[2024]
	},
	{
		"bufferView":1,
		"type":"VEC3",
		"componentType":5126,
		"count":2025,
		"byteOffset":0,
		"min":[-0.1122426763176918,
		-0.000007322560122702271,
		-0.11214707791805268],
		"max":[1.6530213356018067,
		1.4567972421646119,
		0.09476885199546814]
	},
	{
		"bufferView":1,
		"type":"VEC2",
		"componentType":5126,
		"count":2025,
		"byteOffset":12,
		"min":[-1.0,
		0.0],
		"max":[1.0,
		6.0]
	},
	{
		"bufferView":2,
		"type":"SCALAR",
		"componentType":5123,
		"count":14400,
		"byteOffset":0,
		"min":[0],
		"max":[3249]
	},
	{
		"bufferView":3,
		"type":"VEC3",
		"componentType":5126,
		"count":3250,
		"byteOffset":0,
		"min":[0.707024872303009,
		0.6570227146148682,
		-0.751502513885498],
		"max":[2.3220267295837404,
		2.1319706439971926,
		0.7581453323364258]
	},
	{
		"bufferView":3,
		"type":"VEC2",
		"componentType":5126,
		"count":3250,
		"byteOffset":12,
		"min":[0.0,
		0.0],
		"max":[1.0,
		4.0]
	},
	{
		"bufferView":4,
		"type":"SCALAR",
		"componentType":5125,
		"count":244800,
		"byteOffset":0,
		"min":[0],
		"max":[68849]
	},
	{
		"bufferView":5,
		"type":"VEC3",
		"componentType":5126,
		"count":68850,
		"byteOffset":0,
		"min":[0.5375030636787415,
		0.4179620146751404,
		-0.8393805027008057],
		"max":[2.461651563644409,
		2.227827310562134,
		0.8243626952171326]
	},
	{
		"bufferView":5,
		"type":"VEC2",
		"componentType":5126,
		"count":68850,
		"byteOffset":12,
		"min":[0.0,
		0.0],
		"max":[1.0,
		1.0]
	}],
	"bufferViews":[{
		"buffer":0,
		"byteOffset":0,
		"byteLength":23040,
		"target":34963
	},
	{
		"buffer":0,
		"byteOffset":23040,
		"byteLength":40500,
		"target":34962,
		"byteStride":20
	},
	{
		"buffer":1,
		"byteOffset":0,
		"byteLength":28800,
		"target":34963
	},
	{
		"buffer":1,
		"byteOffset":28800,
		"byteLength":65000,
		"target":34962,
		"byteStride":20
	},
	{
		"buffer":2,
		"byteOffset":0,
		"byteLength":979200,
		"target":34963
	},
	{
		"buffer":2,
		"byteOffset":979200,
		"byteLength":1377000,
		"target":34962,
		"byteStride":20
	}],
	"buffers":[{
		"uri":"data:application/octet-stream;base64,",
		"byteLength":63540
	},
	{
		"uri":"data:application/octet-stream;base64,",
		"byteLength":93800
	},
	{
		"uri":"data:application/octet-stream;base64,",
		"byteLength":2356200
	}],
	"materials":[{
		"pbrMetallicRoughness":{
			"baseColorFactor":[0.4376470588235294,
			0.3764705882352941,
			0.3341176470588236,
			1.0],
			"metallicFactor":1.0,
			"roughnessFactor":1.0
		},
		"emissiveFactor":[0.0,
		0.0,
		0.0],
		"alphaMode":"OPAQUE",
		"doubleSided":true,
		"name":"Green"
	},
	{
		"pbrMetallicRoughness":{
			"baseColorFactor":[0.26352941176470598,
			0.5223529411764706,
			0.2023529411764706,
			1.0],
			"metallicFactor":1.0,
			"roughnessFactor":1.0
		},
		"emissiveFactor":[0.0,
		0.0,
		0.0],
		"alphaMode":"OPAQUE",
		"doubleSided":true,
		"name":"Green"
	}]
}