{
	"asset":{
		"version":"2.0",
		"generator":"Created using the official Cinema 4D glTF Exporter 1.000x290161"
	},
	"scenes":[{
		"nodes":[0]
	}],
	"nodes":[{
		"name":"Paper Boat.1",
		"translation":[3.022928237915039,
		0.7013106942176819,
		-1.7558773756027222],
		"rotation":[4.810774445907634e-16,
		-5.355025937045228e-16,
		-0.06705032289028168,
		0.9977495670318604],
		"scale":[1.0,
		1.0,
		1.0],
		"mesh":0
	}],
	"meshes":[{
		"primitives":[{
			"attributes":{
				"POSITION":1,
				"NORMAL":2,
				"TEXCOORD_0":3
			},
			"indices":0,
			"material":0
		}]
	}],
	"accessors":[{
		"bufferView":0,
		"type":"SCALAR",
		"componentType":5123,
		"count":90,
		"byteOffset":0,
		"min":[0],
		"max":[65]
	},
	{
		"bufferView":1,
		"type":"VEC3",
		"componentType":5126,
		"count":66,
		"byteOffset":0,
		"min":[-0.30457422137260439,
		-0.06875483691692352,
		-0.3076470196247101],
		"max":[0.17985866963863374,
		0.2833402454853058,
		0.34118789434432986]
	},
	{
		"bufferView":1,
		"type":"VEC3",
		"componentType":5126,
		"count":66,
		"byteOffset":12,
		"min":[-0.8224573135375977,
		-0.9741455912590027,
		-0.8221144080162048],
		"max":[0.7878980040550232,
		0.9109343886375427,
		0.7178820371627808]
	},
	{
		"bufferView":1,
		"type":"VEC2",
		"componentType":5126,
		"count":66,
		"byteOffset":24,
		"min":[0.0,
		0.0],
		"max":[1.0,
		1.0]
	}],
	"bufferViews":[{
		"buffer":0,
		"byteOffset":0,
		"byteLength":180,
		"target":34963
	},
	{
		"buffer":0,
		"byteOffset":180,
		"byteLength":2112,
		"target":34962,
		"byteStride":32
	}],
	"buffers":[{
		"uri":"data:application/octet-stream;base64,",
		"byteLength":2292
	}],
	"materials":[{
		"pbrMetallicRoughness":{
			"baseColorFactor":[0.7482352941176471,
			0.8988235294117647,
			0.6964705882352941,
			1.0],
			"metallicFactor":1.0,
			"roughnessFactor":1.0
		},
		"emissiveFactor":[0.0,
		0.0,
		0.0],
		"alphaMode":"OPAQUE",
		"doubleSided":true,
		"name":"Green"
	}]
}