{
	"asset":{
		"version":"2.0",
		"generator":"Created using the official Cinema 4D glTF Exporter 1.000x290161"
	},
	"scenes":[{
		"nodes":[0]
	}],
	"nodes":[{
		"name":"Passport",
		"translation":[2.983642816543579,
		0.6484463214874268,
		-1.3029284477233887],
		"rotation":[0.0,
		-0.9553521871566773,
		0.0,
		0.2954695224761963],
		"scale":[1.0,
		1.0,
		1.0],
		"children":[1,
		2]
	},
	{
		"name":"Passport",
		"translation":[1.4210854397564649e-16,
		-1.4210854397564649e-16,
		0.0],
		"rotation":[0.0,
		-2.220446049250313e-16,
		0.0,
		-1.0],
		"scale":[1.0,
		1.0,
		1.0],
		"mesh":0
	},
	{
		"name":"Pages",
		"translation":[1.4210854397564649e-16,
		-1.4210854397564649e-16,
		0.0],
		"rotation":[0.0,
		-2.220446049250313e-16,
		0.0,
		-1.0],
		"scale":[1.0,
		1.0,
		1.0],
		"mesh":1
	}],
	"meshes":[{
		"primitives":[{
			"attributes":{
				"POSITION":1,
				"NORMAL":2,
				"TEXCOORD_0":3
			},
			"indices":0,
			"material":0
		}]
	},
	{
		"primitives":[{
			"attributes":{
				"POSITION":5,
				"NORMAL":6,
				"TEXCOORD_0":7
			},
			"indices":4,
			"material":1
		}]
	}],
	"accessors":[{
		"bufferView":0,
		"type":"SCALAR",
		"componentType":5123,
		"count":3492,
		"byteOffset":0,
		"min":[0],
		"max":[810]
	},
	{
		"bufferView":1,
		"type":"VEC3",
		"componentType":5126,
		"count":811,
		"byteOffset":0,
		"min":[-0.1312633603811264,
		-0.010442475788295269,
		-0.2001582682132721],
		"max":[0.16791842877864839,
		0.00440639303997159,
		0.00020708079682663083]
	},
	{
		"bufferView":1,
		"type":"VEC3",
		"componentType":5126,
		"count":811,
		"byteOffset":12,
		"min":[-1.0,
		-0.9999997019767761,
		-1.0],
		"max":[1.0,
		1.0,
		0.9998289346694946]
	},
	{
		"bufferView":1,
		"type":"VEC2",
		"componentType":5126,
		"count":811,
		"byteOffset":24,
		"min":[0.0,
		0.0],
		"max":[1.0,
		1.0]
	},
	{
		"bufferView":2,
		"type":"SCALAR",
		"componentType":5123,
		"count":30,
		"byteOffset":0,
		"min":[0],
		"max":[19]
	},
	{
		"bufferView":3,
		"type":"VEC3",
		"componentType":5126,
		"count":20,
		"byteOffset":0,
		"min":[-0.12318314611911774,
		-0.0077040730975568298,
		-0.19167055189609528],
		"max":[0.16227631270885468,
		0.0019979076460003855,
		-0.0009995136642828584]
	},
	{
		"bufferView":3,
		"type":"VEC3",
		"componentType":5126,
		"count":20,
		"byteOffset":12,
		"min":[0.0,
		0.0,
		-0.039568524807691577],
		"max":[1.0,
		1.0,
		0.00293691735714674]
	},
	{
		"bufferView":3,
		"type":"VEC2",
		"componentType":5126,
		"count":20,
		"byteOffset":24,
		"min":[0.0,
		0.0],
		"max":[1.0,
		1.0]
	}],
	"bufferViews":[{
		"buffer":0,
		"byteOffset":0,
		"byteLength":6984,
		"target":34963
	},
	{
		"buffer":0,
		"byteOffset":6984,
		"byteLength":25952,
		"target":34962,
		"byteStride":32
	},
	{
		"buffer":1,
		"byteOffset":0,
		"byteLength":60,
		"target":34963
	},
	{
		"buffer":1,
		"byteOffset":60,
		"byteLength":640,
		"target":34962,
		"byteStride":32
	}],
	"buffers":[{
		"uri":"data:application/octet-stream;base64,",
		"byteLength":32936
	},
	{
		"uri":"data:application/octet-stream;base64,",
		"byteLength":700
	}],
	"images":[{
		"uri":"data:image/jpeg;base64,"
	}],
	"samplers":[{
		"magFilter":9729,
		"minFilter":9729,
		"wrapS":10497,
		"wrapT":10497
	}],
	"textures":[{
		"sampler":0,
		"source":0
	}],
	"materials":[{
		"pbrMetallicRoughness":{
			"baseColorFactor":[0.40583529411764709,
			0.6149019607843138,
			0.4859775163398694,
			1.0],
			"metallicFactor":1.0,
			"roughnessFactor":1.0
		},
		"emissiveFactor":[0.7694117647058824,
		0.32117647058823536,
		0.511764705882353],
		"alphaMode":"OPAQUE",
		"doubleSided":true,
		"name":"Pink"
	},
	{
		"pbrMetallicRoughness":{
			"baseColorFactor":[1.0,
			0.9014778325123152,
			0.8128078817733992,
			1.0],
			"metallicFactor":1.0,
			"roughnessFactor":1.0
		},
		"normalTexture":{
			"index":0,
			"scale":1.0
		},
		"emissiveFactor":[0.0,
		0.0,
		0.0],
		"alphaMode":"OPAQUE",
		"doubleSided":true,
		"name":"Hospital Bed"
	}]
}