{
	"asset":{
		"version":"2.0",
		"generator":"Created using the official Cinema 4D glTF Exporter 1.000x290161"
	},
	"scenes":[{
		"nodes":[0]
	}],
	"nodes":[{
		"name":"Tall Grass",
		"translation":[-0.22874915599822999,
		0.7832233905792236,
		-0.0912618637084961],
		"rotation":[0.0,
		0.0,
		0.0,
		-1.0],
		"scale":[1.0,
		1.0,
		1.0],
		"children":[1]
	},
	{
		"name":"Half Blade",
		"translation":[-0.3094738721847534,
		-0.0074762641452252869,
		-0.03408781439065933],
		"rotation":[-8.944667923005412e-18,
		0.0,
		0.0,
		-1.0],
		"scale":[1.0,
		1.0,
		1.0],
		"mesh":0
	}],
	"meshes":[{
		"primitives":[{
			"attributes":{
				"POSITION":1,
				"NORMAL":2,
				"TEXCOORD_0":3
			},
			"indices":0,
			"material":0
		}]
	}],
	"accessors":[{
		"bufferView":0,
		"type":"SCALAR",
		"componentType":5123,
		"count":6888,
		"byteOffset":0,
		"min":[0],
		"max":[2547]
	},
	{
		"bufferView":1,
		"type":"VEC3",
		"componentType":5126,
		"count":2548,
		"byteOffset":0,
		"min":[-2.3314242362976076,
		-0.5462619662284851,
		-1.0391780138015748],
		"max":[2.126851797103882,
		0.721934974193573,
		1.0378365516662598]
	},
	{
		"bufferView":1,
		"type":"VEC3",
		"componentType":5126,
		"count":2548,
		"byteOffset":12,
		"min":[-0.9992071986198425,
		-1.0,
		-0.9992160201072693],
		"max":[0.9992071986198425,
		0.3548181354999542,
		0.9992160201072693]
	},
	{
		"bufferView":1,
		"type":"VEC2",
		"componentType":5126,
		"count":2548,
		"byteOffset":24,
		"min":[0.0,
		0.0],
		"max":[1.0,
		1.0]
	}],
	"bufferViews":[{
		"buffer":0,
		"byteOffset":0,
		"byteLength":13776,
		"target":34963
	},
	{
		"buffer":0,
		"byteOffset":13776,
		"byteLength":81536,
		"target":34962,
		"byteStride":32
	}],
	"buffers":[{
		"uri":"data:application/octet-stream;base64,",
		"byteLength":95312
	}],
	"materials":[{
		"pbrMetallicRoughness":{
			"baseColorFactor":[0.54162,
			0.708,
			0.042479999999999958,
			1.0],
			"metallicFactor":1.0,
			"roughnessFactor":1.0
		},
		"emissiveFactor":[0.4089600000000001,
		0.411744,
		0.5760000000000001],
		"alphaMode":"OPAQUE",
		"doubleSided":true,
		"name":"Green"
	}]
}