{
	"asset":{
		"version":"2.0",
		"generator":"Created using the official Cinema 4D glTF Exporter 1.000x290161"
	},
	"scenes":[{
		"nodes":[0]
	}],
	"nodes":[{
		"name":"Grass",
		"translation":[-0.22874915599822999,
		0.5657294392585754,
		-0.0912618637084961],
		"rotation":[0.0,
		0.0,
		0.0,
		-1.0],
		"scale":[1.0,
		1.0,
		1.0],
		"children":[1]
	},
	{
		"name":"Half Blade",
		"translation":[-0.40065228939056399,
		-0.021394945681095125,
		-0.03408781439065933],
		"rotation":[-8.944667923005412e-18,
		0.0,
		0.0,
		-1.0],
		"scale":[1.0,
		1.0,
		1.0],
		"mesh":0
	}],
	"meshes":[{
		"primitives":[{
			"attributes":{
				"POSITION":1,
				"NORMAL":2,
				"TEXCOORD_0":3
			},
			"indices":0,
			"material":0
		}]
	}],
	"accessors":[{
		"bufferView":0,
		"type":"SCALAR",
		"componentType":5123,
		"count":6888,
		"byteOffset":0,
		"min":[0],
		"max":[2547]
	},
	{
		"bufferView":1,
		"type":"VEC3",
		"componentType":5126,
		"count":2548,
		"byteOffset":0,
		"min":[-2.240245819091797,
		-0.5323432683944702,
		-1.0391780138015748],
		"max":[2.2180302143096926,
		0.7358536720275879,
		1.0378365516662598]
	},
	{
		"bufferView":1,
		"type":"VEC3",
		"componentType":5126,
		"count":2548,
		"byteOffset":12,
		"min":[-0.9992071986198425,
		-1.0,
		-0.9992160201072693],
		"max":[0.9992071986198425,
		0.3548182547092438,
		0.9992160201072693]
	},
	{
		"bufferView":1,
		"type":"VEC2",
		"componentType":5126,
		"count":2548,
		"byteOffset":24,
		"min":[0.0,
		0.0],
		"max":[1.0,
		1.0]
	}],
	"bufferViews":[{
		"buffer":0,
		"byteOffset":0,
		"byteLength":13776,
		"target":34963
	},
	{
		"buffer":0,
		"byteOffset":13776,
		"byteLength":81536,
		"target":34962,
		"byteStride":32
	}],
	"buffers":[{
		"uri":"data:application/octet-stream;base64,",
		"byteLength":95312
	}],
	"materials":[{
		"pbrMetallicRoughness":{
			"baseColorFactor":[0.7482352941176471,
			0.8988235294117647,
			0.6964705882352941,
			1.0],
			"metallicFactor":1.0,
			"roughnessFactor":1.0
		},
		"emissiveFactor":[0.0,
		0.0,
		0.0],
		"alphaMode":"OPAQUE",
		"doubleSided":true,
		"name":"Green"
	}]
}