{
	"asset":{
		"version":"2.0",
		"generator":"Created using the official Cinema 4D glTF Exporter 1.000x290161"
	},
	"scenes":[{
		"nodes":[0]
	}],
	"nodes":[{
		"name":"Waterlily",
		"translation":[2.0101795196533205,
		0.0489700548350811,
		1.87538743019104],
		"rotation":[0.0,
		0.0,
		0.0,
		-1.0],
		"scale":[1.0,
		1.0,
		1.0],
		"children":[1]
	},
	{
		"name":"Petal",
		"mesh":0
	}],
	"meshes":[{
		"primitives":[{
			"attributes":{
				"POSITION":1,
				"NORMAL":2,
				"TEXCOORD_0":3
			},
			"indices":0,
			"material":0
		}]
	}],
	"accessors":[{
		"bufferView":0,
		"type":"SCALAR",
		"componentType":5123,
		"count":22320,
		"byteOffset":0,
		"min":[0],
		"max":[4556]
	},
	{
		"bufferView":1,
		"type":"VEC3",
		"componentType":5126,
		"count":4557,
		"byteOffset":0,
		"min":[-1.3131046295166016,
		0.023038838058710099,
		-1.1340563297271729],
		"max":[1.1930278539657593,
		1.1113545894622803,
		1.2329694032669068]
	},
	{
		"bufferView":1,
		"type":"VEC3",
		"componentType":5126,
		"count":4557,
		"byteOffset":12,
		"min":[-0.9663864374160767,
		0.22207005321979524,
		-0.9571003317832947],
		"max":[0.9629443883895874,
		0.9999952912330627,
		0.9549522995948792]
	},
	{
		"bufferView":1,
		"type":"VEC2",
		"componentType":5126,
		"count":4557,
		"byteOffset":24,
		"min":[-1.0,
		-1.0],
		"max":[0.0,
		0.0]
	}],
	"bufferViews":[{
		"buffer":0,
		"byteOffset":0,
		"byteLength":44640,
		"target":34963
	},
	{
		"buffer":0,
		"byteOffset":44640,
		"byteLength":145824,
		"target":34962,
		"byteStride":32
	}],
	"buffers":[{
		"uri":"data:application/octet-stream;base64,",
		"byteLength":190464
	}],
	"materials":[{
		"pbrMetallicRoughness":{
			"baseColorFactor":[0.40583529411764709,
			0.6149019607843138,
			0.4859775163398694,
			1.0],
			"metallicFactor":1.0,
			"roughnessFactor":1.0
		},
		"emissiveFactor":[0.7694117647058824,
		0.32117647058823536,
		0.511764705882353],
		"alphaMode":"OPAQUE",
		"doubleSided":true,
		"name":"Green"
	}]
}